<svg width="3" height="3" viewBox="0 0 3 3" fill="none" xmlns="http://www.w3.org/2000/svg">
<path d="M3 0.272727C3 0.122104 2.8779 -2.16551e-07 2.72727 -1.01605e-07L0.272727 -1.59078e-07C0.122104 -1.59078e-07 1.92796e-07 0.122104 1.92796e-07 0.272727C1.92796e-07 0.42335 0.122104 0.545454 0.272727 0.545454L2.45455 0.545454L2.45455 2.72727C2.45455 2.8779 2.57665 3 2.72727 3C2.8779 3 3 2.8779 3 2.72727L3 0.272727ZM0.704211 2.68148L2.92012 0.465574L2.53443 0.0798798L0.318516 2.29579L0.704211 2.68148Z" fill="#121212"/>
<path d="M3 0.272727C3 0.122104 2.8779 -2.16551e-07 2.72727 -1.01605e-07L0.272727 -1.59078e-07C0.122104 -1.59078e-07 1.92796e-07 0.122104 1.92796e-07 0.272727C1.92796e-07 0.42335 0.122104 0.545454 0.272727 0.545454L2.45455 0.545454L2.45455 2.72727C2.45455 2.8779 2.57665 3 2.72727 3C2.8779 3 3 2.8779 3 2.72727L3 0.272727ZM0.704211 2.68148L2.92012 0.465574L2.53443 0.0798798L0.318516 2.29579L0.704211 2.68148Z" fill="#121212"/>
<path d="M3 0.272727C3 0.122104 2.8779 -2.16551e-07 2.72727 -1.01605e-07L0.272727 -1.59078e-07C0.122104 -1.59078e-07 1.92796e-07 0.122104 1.92796e-07 0.272727C1.92796e-07 0.42335 0.122104 0.545454 0.272727 0.545454L2.45455 0.545454L2.45455 2.72727C2.45455 2.8779 2.57665 3 2.72727 3C2.8779 3 3 2.8779 3 2.72727L3 0.272727ZM0.704211 2.68148L2.92012 0.465574L2.53443 0.0798798L0.318516 2.29579L0.704211 2.68148Z" fill="#121212"/>
</svg>
