<svg width="8" height="8" viewBox="0 0 8 8" fill="none" xmlns="http://www.w3.org/2000/svg">
<path d="M0 1.60713V7.18014C0 7.32209 0.115068 7.43716 0.257012 7.43716H2.02261C2.16455 7.43716 2.27962 7.32209 2.27962 7.18014V1.6049C2.27962 1.5556 2.26545 1.50735 2.23879 1.46589L1.37209 0.118032C1.27188 -0.0378208 1.04467 -0.0396339 0.941984 0.1146L0.0430805 1.46469C0.0149885 1.50688 0 1.55644 0 1.60713Z" fill="#B1B1B1"/>
<path d="M2.85926 1.60713V7.18014C2.85926 7.32209 2.97433 7.43716 3.11627 7.43716H4.88187C5.02381 7.43716 5.13888 7.32209 5.13888 7.18014V1.6049C5.13888 1.5556 5.12471 1.50735 5.09805 1.46589L4.23135 0.118032C4.13113 -0.0378208 3.90393 -0.0396339 3.80124 0.1146L2.90234 1.46469C2.87425 1.50688 2.85926 1.55644 2.85926 1.60713Z" fill="#B1B1B1"/>
<path d="M5.72052 1.60713V7.18014C5.72052 7.32209 5.83559 7.43716 5.97754 7.43716H7.74313C7.88508 7.43716 8.00015 7.32209 8.00015 7.18014V1.6049C8.00015 1.5556 7.98597 1.50735 7.95931 1.46589L7.09262 0.118032C6.9924 -0.0378208 6.7652 -0.0396339 6.66251 0.1146L5.76361 1.46469C5.73551 1.50688 5.72052 1.55644 5.72052 1.60713Z" fill="#B1B1B1"/>
</svg>
