<svg width="439" height="225" viewBox="0 0 439 225" fill="none" xmlns="http://www.w3.org/2000/svg">
<path d="M0 219.363H11.8017C11.8057 219.363 11.8098 219.364 11.8138 219.365L28.2103 223.464C28.2263 223.468 28.2433 223.464 28.2557 223.453L32.8365 219.381C32.8489 219.37 32.8659 219.366 32.882 219.37L49.2642 223.465C49.277 223.469 49.2907 223.467 49.3021 223.46L64.6736 214.237C64.6814 214.232 64.6903 214.23 64.6994 214.23H86.2188C86.2364 214.23 86.2527 214.221 86.2618 214.205L90.8475 206.563C90.8593 206.543 90.8829 206.534 90.9048 206.54L106.231 211.138C106.253 211.145 106.277 211.136 106.289 211.116L110.878 203.467C110.885 203.455 110.896 203.447 110.909 203.444L123.193 200.373C123.204 200.37 123.214 200.364 123.221 200.354L129.356 192.175C129.365 192.162 129.38 192.155 129.396 192.155H134.483C134.497 192.155 134.51 192.149 134.519 192.14L153.484 172.662C153.494 172.652 153.507 172.647 153.52 172.647H168.883C168.894 172.647 168.905 172.65 168.914 172.657L193.513 192.131C193.53 192.145 193.555 192.146 193.573 192.133L204.31 184.463C204.319 184.457 204.329 184.454 204.339 184.454H209.442C209.452 184.454 209.461 184.451 209.469 184.446L232.552 169.571C232.556 169.568 232.56 169.564 232.564 169.56L240.738 159.342C240.756 159.319 240.791 159.317 240.812 159.338L243.83 162.356C243.844 162.37 243.865 162.375 243.883 162.368L252.052 159.304C252.062 159.301 252.072 159.3 252.082 159.303L263.845 162.371C263.863 162.376 263.882 162.37 263.895 162.356L286.961 136.727C286.971 136.716 286.984 136.71 286.999 136.71H296.183C296.203 136.71 296.222 136.698 296.229 136.678L301.852 121.855C301.859 121.835 301.878 121.823 301.899 121.823H319.816C319.827 121.823 319.837 121.819 319.845 121.813L348.068 101.288L368.586 83.3345C368.597 83.325 368.603 83.3113 368.603 83.2968V69.5085C368.603 69.4808 368.625 69.4584 368.653 69.4584H380.383C380.4 69.4584 380.416 69.4496 380.425 69.4351L399.904 38.6793C399.913 38.6648 399.929 38.656 399.946 38.656H404.505C404.526 38.656 404.544 38.6436 404.552 38.6248L411.2 22.2592C411.208 22.2403 411.226 22.228 411.247 22.228H418.878C418.899 22.228 418.918 22.2144 418.925 22.1941L426.064 1.28574C426.078 1.24477 426.134 1.23967 426.156 1.27742L437.908 22.228" stroke="#4375FB" stroke-width="2.5"/>
</svg>
