<svg width="12" height="11" viewBox="0 0 12 11" fill="none" xmlns="http://www.w3.org/2000/svg">
<path d="M10.7979 10.8514C3.99563 11.1312 1.50741 5.70764 0.0377168 1.9877C-0.0597641 1.74096 0.0378128 1.46111 0.266248 1.32622L2.38472 0.0751964C2.64104 -0.0761669 2.97148 0.0079158 3.12428 0.26338L4.17387 2.01819C4.28086 2.19707 4.2756 2.4215 4.16035 2.59517L3.52062 3.55918C3.41376 3.72021 3.40098 3.92681 3.48797 4.09938C4.68194 6.46793 5.22073 7.00264 7.671 8.24237C7.85356 8.33474 8.07348 8.31517 8.23727 8.19256L9.05934 7.57716C9.18118 7.48594 9.33581 7.45026 9.48531 7.47886L11.5601 7.87577C11.8873 7.93837 12.0808 8.27895 11.967 8.59207L11.2734 10.5009C11.2003 10.7021 11.0118 10.8426 10.7979 10.8514Z" fill="#121212"/>
</svg>
