<svg width="455" height="246" viewBox="0 0 455 246" fill="none" xmlns="http://www.w3.org/2000/svg">
<path d="M2.16799 0L-2.45906e-05 3.75511H4.336L2.16799 0ZM2.16799 243.406H1.79248V243.781H2.16799V243.406ZM455 243.406L451.245 241.238V245.574L455 243.406ZM1.79248 2.9927V4.98783H2.5435V2.9927H1.79248ZM1.79248 6.98296V8.97809H2.5435V6.98296H1.79248ZM1.79248 10.9732V12.9683H2.5435V10.9732H1.79248ZM1.79248 14.9635V16.9586H2.5435V14.9635H1.79248ZM1.79248 18.9537V20.9489H2.5435V18.9537H1.79248ZM1.79248 22.944V24.9391H2.5435V22.944H1.79248ZM1.79248 26.9343V28.9294H2.5435V26.9343H1.79248ZM1.79248 30.9245V32.9197H2.5435V30.9245H1.79248ZM1.79248 34.9148V36.9099H2.5435V34.9148H1.79248ZM1.79248 38.9051V40.9002H2.5435V38.9051H1.79248ZM1.79248 42.8953V44.8904H2.5435V42.8953H1.79248ZM1.79248 46.8856V48.8807H2.5435V46.8856H1.79248ZM1.79248 50.8758V52.871H2.5435V50.8758H1.79248ZM1.79248 54.8661V56.8612H2.5435V54.8661H1.79248ZM1.79248 58.8564V60.8515H2.5435V58.8564H1.79248ZM1.79248 62.8466V64.8418H2.5435V62.8466H1.79248ZM1.79248 66.8369V68.832H2.5435V66.8369H1.79248ZM1.79248 70.8272V72.8223H2.5435V70.8272H1.79248ZM1.79248 74.8174V76.8126H2.5435V74.8174H1.79248ZM1.79248 78.8077V80.8028H2.5435V78.8077H1.79248ZM1.79248 82.7979V84.7931H2.5435V82.7979H1.79248ZM1.79248 86.7882V88.7833H2.5435V86.7882H1.79248ZM1.79248 90.7785V92.7736H2.5435V90.7785H1.79248ZM1.79248 94.7687V96.7639H2.5435V94.7687H1.79248ZM1.79248 98.759V100.754H2.5435V98.759H1.79248ZM1.79248 102.749V104.744H2.5435V102.749H1.79248ZM1.79248 106.74V108.735H2.5435V106.74H1.79248ZM1.79248 110.73V112.725H2.5435V110.73H1.79248ZM1.79248 114.72V116.715H2.5435V114.72H1.79248ZM1.79248 118.71V120.705H2.5435V118.71H1.79248ZM1.79248 122.701V124.696H2.5435V122.701H1.79248ZM1.79248 126.691V128.686H2.5435V126.691H1.79248ZM1.79248 130.681V132.676H2.5435V130.681H1.79248ZM1.79248 134.671V136.666H2.5435V134.671H1.79248ZM1.79248 138.662V140.657H2.5435V138.662H1.79248ZM1.79248 142.652V144.647H2.5435V142.652H1.79248ZM1.79248 146.642V148.637H2.5435V146.642H1.79248ZM1.79248 150.632V152.628H2.5435V150.632H1.79248ZM1.79248 154.623V156.618H2.5435V154.623H1.79248ZM1.79248 158.613V160.608H2.5435V158.613H1.79248ZM1.79248 162.603V164.598H2.5435V162.603H1.79248ZM1.79248 166.593V168.589H2.5435V166.593H1.79248ZM1.79248 170.584V172.579H2.5435V170.584H1.79248ZM1.79248 174.574V176.569H2.5435V174.574H1.79248ZM1.79248 178.564V180.559H2.5435V178.564H1.79248ZM1.79248 182.555V184.55H2.5435V182.555H1.79248ZM1.79248 186.545V188.54H2.5435V186.545H1.79248ZM1.79248 190.535V192.53H2.5435V190.535H1.79248ZM1.79248 194.525V196.52H2.5435V194.525H1.79248ZM1.79248 198.516V200.511H2.5435V198.516H1.79248ZM1.79248 202.506V204.501H2.5435V202.506H1.79248ZM1.79248 206.496V208.491H2.5435V206.496H1.79248ZM1.79248 210.486V212.481H2.5435V210.486H1.79248ZM1.79248 214.477V216.472H2.5435V214.477H1.79248ZM1.79248 218.467V220.462H2.5435V218.467H1.79248ZM1.79248 222.457V224.452H2.5435V222.457H1.79248ZM1.79248 226.447V228.443H2.5435V226.447H1.79248ZM1.79248 230.438V232.433H2.5435V230.438H1.79248ZM1.79248 234.428V236.423H2.5435V234.428H1.79248ZM1.79248 238.418V240.413H2.5435V238.418H1.79248ZM1.79248 242.408V243.406H2.5435V242.408H1.79248ZM2.16799 243.781H3.16983V243.03H2.16799V243.781ZM5.17351 243.781H7.17719V243.03H5.17351V243.781ZM9.18087 243.781H11.1846V243.03H9.18087V243.781ZM13.1882 243.781H15.1919V243.03H13.1882V243.781ZM17.1956 243.781H19.1993V243.03H17.1956V243.781ZM21.203 243.781H23.2066V243.03H21.203V243.781ZM25.2103 243.781H27.214V243.03H25.2103V243.781ZM29.2177 243.781H31.2214V243.03H29.2177V243.781ZM33.2251 243.781H35.2287V243.03H33.2251V243.781ZM37.2324 243.781H39.2361V243.03H37.2324V243.781ZM41.2398 243.781H43.2435V243.03H41.2398V243.781ZM45.2471 243.781H47.2508V243.03H45.2471V243.781ZM49.2545 243.781H51.2582V243.03H49.2545V243.781ZM53.2619 243.781H55.2655V243.03H53.2619V243.781ZM57.2692 243.781H59.2729V243.03H57.2692V243.781ZM61.2766 243.781H63.2803V243.03H61.2766V243.781ZM65.2839 243.781H67.2876V243.03H65.2839V243.781ZM69.2913 243.781H71.295V243.03H69.2913V243.781ZM73.2987 243.781H75.3023V243.03H73.2987V243.781ZM77.306 243.781H79.3097V243.03H77.306V243.781ZM81.3134 243.781H83.3171V243.03H81.3134V243.781ZM85.3207 243.781H87.3244V243.03H85.3207V243.781ZM89.3281 243.781H91.3318V243.03H89.3281V243.781ZM93.3355 243.781H95.3391V243.03H93.3355V243.781ZM97.3428 243.781H99.3465V243.03H97.3428V243.781ZM101.35 243.781H103.354V243.03H101.35V243.781ZM105.358 243.781H107.361V243.03H105.358V243.781ZM109.365 243.781H111.369V243.03H109.365V243.781ZM113.372 243.781H115.376V243.03H113.372V243.781ZM117.38 243.781H119.383V243.03H117.38V243.781ZM121.387 243.781H123.391V243.03H121.387V243.781ZM125.394 243.781H127.398V243.03H125.394V243.781ZM129.402 243.781H131.405V243.03H129.402V243.781ZM133.409 243.781H135.413V243.03H133.409V243.781ZM137.416 243.781H139.42V243.03H137.416V243.781ZM141.424 243.781H143.428V243.03H141.424V243.781ZM145.431 243.781H147.435V243.03H145.431V243.781ZM149.439 243.781H151.442V243.03H149.439V243.781ZM153.446 243.781H155.45V243.03H153.446V243.781ZM157.453 243.781H159.457V243.03H157.453V243.781ZM161.461 243.781H163.464V243.03H161.461V243.781ZM165.468 243.781H167.472V243.03H165.468V243.781ZM169.475 243.781H171.479V243.03H169.475V243.781ZM173.483 243.781H175.487V243.03H173.483V243.781ZM177.49 243.781H179.494V243.03H177.49V243.781ZM181.498 243.781H183.501V243.03H181.498V243.781ZM185.505 243.781H187.509V243.03H185.505V243.781ZM189.512 243.781H191.516V243.03H189.512V243.781ZM193.52 243.781H195.523V243.03H193.52V243.781ZM197.527 243.781H199.531V243.03H197.527V243.781ZM201.534 243.781H203.538V243.03H201.534V243.781ZM205.542 243.781H207.546V243.03H205.542V243.781ZM209.549 243.781H211.553V243.03H209.549V243.781ZM213.557 243.781H215.56V243.03H213.557V243.781ZM217.564 243.781H219.568V243.03H217.564V243.781ZM221.571 243.781H223.575V243.03H221.571V243.781ZM225.579 243.781H227.582V243.03H225.579V243.781ZM229.586 243.781H231.59V243.03H229.586V243.781ZM233.593 243.781H235.597V243.03H233.593V243.781ZM237.601 243.781H239.605V243.03H237.601V243.781ZM241.608 243.781H243.612V243.03H241.608V243.781ZM245.616 243.781H247.619V243.03H245.616V243.781ZM249.623 243.781H251.627V243.03H249.623V243.781ZM253.63 243.781H255.634V243.03H253.63V243.781ZM257.638 243.781H259.641V243.03H257.638V243.781ZM261.645 243.781H263.649V243.03H261.645V243.781ZM265.652 243.781H267.656V243.03H265.652V243.781ZM269.66 243.781H271.663V243.03H269.66V243.781ZM273.667 243.781H275.671V243.03H273.667V243.781ZM277.674 243.781H279.678V243.03H277.674V243.781ZM281.682 243.781H283.685V243.03H281.682V243.781ZM285.689 243.781H287.693V243.03H285.689V243.781ZM289.696 243.781H291.7V243.03H289.696V243.781ZM293.704 243.781H295.707V243.03H293.704V243.781ZM297.711 243.781H299.715V243.03H297.711V243.781ZM301.719 243.781H303.722V243.03H301.719V243.781ZM305.726 243.781H307.73V243.03H305.726V243.781ZM309.733 243.781H311.737V243.03H309.733V243.781ZM313.741 243.781H315.744V243.03H313.741V243.781ZM317.748 243.781H319.752V243.03H317.748V243.781ZM321.755 243.781H323.759V243.03H321.755V243.781ZM325.763 243.781H327.766V243.03H325.763V243.781ZM329.77 243.781H331.774V243.03H329.77V243.781ZM333.777 243.781H335.781V243.03H333.777V243.781ZM337.785 243.781H339.788V243.03H337.785V243.781ZM341.792 243.781H343.796V243.03H341.792V243.781ZM345.799 243.781H347.803V243.03H345.799V243.781ZM349.807 243.781H351.81V243.03H349.807V243.781ZM353.814 243.781H355.818V243.03H353.814V243.781ZM357.821 243.781H359.825V243.03H357.821V243.781ZM361.829 243.781H363.832V243.03H361.829V243.781ZM365.836 243.781H367.84V243.03H365.836V243.781ZM369.843 243.781H371.847V243.03H369.843V243.781ZM373.851 243.781H375.854V243.03H373.851V243.781ZM377.858 243.781H379.862V243.03H377.858V243.781ZM381.865 243.781H383.869V243.03H381.865V243.781ZM385.873 243.781H387.876V243.03H385.873V243.781ZM389.88 243.781H391.884V243.03H389.88V243.781ZM393.887 243.781H395.891V243.03H393.887V243.781ZM397.895 243.781H399.898V243.03H397.895V243.781ZM401.902 243.781H403.906V243.03H401.902V243.781ZM405.909 243.781H407.913V243.03H405.909V243.781ZM409.917 243.781H411.921V243.03H409.917V243.781ZM413.924 243.781H415.928V243.03H413.924V243.781ZM417.932 243.781H419.935V243.03H417.932V243.781ZM421.939 243.781H423.943V243.03H421.939V243.781ZM425.946 243.781H427.95V243.03H425.946V243.781ZM429.954 243.781H431.957V243.03H429.954V243.781ZM433.961 243.781H435.965V243.03H433.961V243.781ZM437.968 243.781H439.972V243.03H437.968V243.781ZM441.976 243.781H443.979V243.03H441.976V243.781ZM445.983 243.781H447.987V243.03H445.983V243.781ZM449.99 243.781H451.994V243.03H449.99V243.781Z" fill="#F2F2F2" fill-opacity="0.5"/>
</svg>
