<svg width="3" height="3" viewBox="0 0 3 3" fill="none" xmlns="http://www.w3.org/2000/svg">
<path d="M0.27286 3C0.122237 3 0.00013297 2.8779 0.000133085 2.72727L0.000133027 0.272727C0.000133027 0.122104 0.122237 1.74214e-07 0.27286 1.74214e-07C0.423483 1.74214e-07 0.545588 0.122104 0.545588 0.272727L0.545588 2.45455L2.72741 2.45455C2.87803 2.45455 3.00013 2.57665 3.00013 2.72727C3.00013 2.8779 2.87803 3 2.72741 3L0.27286 3ZM2.6181 0.767732L0.465708 2.92012L0.080013 2.53443L2.2324 0.382037L2.6181 0.767732Z" fill="#121212"/>
<path d="M0.27286 3C0.122237 3 0.00013297 2.8779 0.000133085 2.72727L0.000133027 0.272727C0.000133027 0.122104 0.122237 1.74214e-07 0.27286 1.74214e-07C0.423483 1.74214e-07 0.545588 0.122104 0.545588 0.272727L0.545588 2.45455L2.72741 2.45455C2.87803 2.45455 3.00013 2.57665 3.00013 2.72727C3.00013 2.8779 2.87803 3 2.72741 3L0.27286 3ZM2.6181 0.767732L0.465708 2.92012L0.080013 2.53443L2.2324 0.382037L2.6181 0.767732Z" fill="#121212"/>
<path d="M0.27286 3C0.122237 3 0.00013297 2.8779 0.000133085 2.72727L0.000133027 0.272727C0.000133027 0.122104 0.122237 1.74214e-07 0.27286 1.74214e-07C0.423483 1.74214e-07 0.545588 0.122104 0.545588 0.272727L0.545588 2.45455L2.72741 2.45455C2.87803 2.45455 3.00013 2.57665 3.00013 2.72727C3.00013 2.8779 2.87803 3 2.72741 3L0.27286 3ZM2.6181 0.767732L0.465708 2.92012L0.080013 2.53443L2.2324 0.382037L2.6181 0.767732Z" fill="#121212"/>
</svg>
