<svg width="3" height="3" viewBox="0 0 3 3" fill="none" xmlns="http://www.w3.org/2000/svg">
<path d="M0.27286 -8.30237e-08C0.122237 -1.9797e-07 0.00013297 0.122104 0.000133085 0.272727L0.000133027 2.72727C0.000133027 2.8779 0.122237 3 0.27286 3C0.423483 3 0.545588 2.8779 0.545588 2.72727L0.545588 0.545454L2.72741 0.545454C2.87803 0.545454 3.00013 0.42335 3.00013 0.272727C3.00013 0.122104 2.87803 -1.40497e-07 2.72741 -1.40497e-07L0.27286 -8.30237e-08ZM2.6181 2.23227L0.465708 0.0798798L0.080013 0.465574L2.2324 2.61796L2.6181 2.23227Z" fill="#121212"/>
<path d="M0.27286 -8.30237e-08C0.122237 -1.9797e-07 0.00013297 0.122104 0.000133085 0.272727L0.000133027 2.72727C0.000133027 2.8779 0.122237 3 0.27286 3C0.423483 3 0.545588 2.8779 0.545588 2.72727L0.545588 0.545454L2.72741 0.545454C2.87803 0.545454 3.00013 0.42335 3.00013 0.272727C3.00013 0.122104 2.87803 -1.40497e-07 2.72741 -1.40497e-07L0.27286 -8.30237e-08ZM2.6181 2.23227L0.465708 0.0798798L0.080013 0.465574L2.2324 2.61796L2.6181 2.23227Z" fill="#121212"/>
<path d="M0.27286 -8.30237e-08C0.122237 -1.9797e-07 0.00013297 0.122104 0.000133085 0.272727L0.000133027 2.72727C0.000133027 2.8779 0.122237 3 0.27286 3C0.423483 3 0.545588 2.8779 0.545588 2.72727L0.545588 0.545454L2.72741 0.545454C2.87803 0.545454 3.00013 0.42335 3.00013 0.272727C3.00013 0.122104 2.87803 -1.40497e-07 2.72741 -1.40497e-07L0.27286 -8.30237e-08ZM2.6181 2.23227L0.465708 0.0798798L0.080013 0.465574L2.2324 2.61796L2.6181 2.23227Z" fill="#121212"/>
</svg>
