<svg width="431" height="63" viewBox="0 0 431 63" fill="none" xmlns="http://www.w3.org/2000/svg">
<path d="M0 54.572H19.9854C19.9925 54.572 19.9995 54.5735 20.0059 54.5765L35.8803 61.7455C35.8867 61.7485 35.8938 61.75 35.9009 61.75H49.2118C49.2176 61.75 49.2234 61.749 49.2288 61.747L78.9455 50.9875C78.9536 50.9846 78.9623 50.9838 78.9708 50.9852L100.488 54.5714C100.49 54.5718 100.493 54.572 100.496 54.572H108.689C108.693 54.572 108.697 54.5716 108.701 54.5706L142.518 46.3726C142.528 46.3701 142.54 46.3711 142.55 46.3755L177.383 61.7433C177.393 61.7476 177.404 61.7487 177.415 61.7463L209.181 54.5734C209.185 54.5725 209.188 54.5711 209.192 54.5693L225.576 46.3775C225.587 46.3718 225.6 46.3707 225.612 46.3744L240.96 50.9787C240.97 50.9815 240.98 50.9815 240.989 50.9787L276.865 40.2161L290.188 37.6539C290.193 37.653 290.197 37.6514 290.202 37.6492L304.027 30.4802C304.035 30.4766 304.042 30.4746 304.05 30.4746H324.541C324.545 30.4746 324.549 30.4742 324.552 30.4733L344.543 25.8603L358.378 21.2485C358.383 21.2468 358.388 21.2459 358.394 21.2459H367.083C367.095 21.2459 367.107 21.2417 367.116 21.2339L380.931 9.46543C380.94 9.45773 380.952 9.4535 380.963 9.4535H392.218C392.222 9.4535 392.227 9.45285 392.231 9.45157L420.93 1.25199C420.934 1.25071 420.939 1.25006 420.944 1.25006H430.678" stroke="#464EC7" stroke-opacity="0.5" stroke-width="2.5"/>
</svg>
