<svg width="10" height="11" viewBox="0 0 10 11" fill="none" xmlns="http://www.w3.org/2000/svg">
<path d="M8.28857 3.88348L3.90005 7.5539C3.84804 7.59739 3.81414 7.65873 3.80496 7.72591L3.68211 8.6255C3.67332 8.68986 3.64181 8.74897 3.59326 8.79213L1.49353 10.659C1.37986 10.7601 1.20543 10.7484 1.10623 10.6332L0.0656261 9.42376C-0.0316977 9.31065 -0.0198469 9.14028 0.0921991 9.04173L2.25809 7.13678C2.30889 7.09211 2.37449 7.06794 2.44213 7.06899L3.19181 7.08062C3.25795 7.08165 3.32219 7.05857 3.37255 7.01569L7.75725 3.28219L8.40879 2.2541C8.44328 2.19967 8.49595 2.15925 8.55744 2.14L9.5199 1.83876C9.62197 1.80681 9.73329 1.83759 9.80446 1.91742L9.89648 2.02064C9.96412 2.0965 9.98387 2.20371 9.94771 2.29869L9.57041 3.28978C9.54298 3.36183 9.48629 3.41887 9.41442 3.44675L8.28857 3.88348Z" fill="#B1B1B1"/>
<path d="M3.31703 4.98724L7.7708 10.5245C7.95753 10.7566 8.29617 10.7956 8.53078 10.612L9.29757 10.0117C9.54428 9.8186 9.57754 9.45763 9.37026 9.22269L4.9063 4.16272C4.80421 4.04699 4.75601 3.89339 4.77369 3.74008L4.96176 2.10927C4.98483 1.90929 4.89569 1.71291 4.72998 1.59862L2.9466 0.36861C2.75641 0.23744 2.50416 0.240556 2.31728 0.376385L0.639575 1.59575C0.445558 1.73676 0.36665 1.98811 0.445261 2.21471L1.12056 4.16131C1.18452 4.34568 1.34226 4.48173 1.53403 4.51793L2.99371 4.79344C3.12112 4.81749 3.23577 4.88621 3.31703 4.98724Z" fill="#B1B1B1" stroke="#F2F2F2" stroke-width="0.5"/>
<circle cx="1.72812" cy="1.38316" r="0.823727" transform="rotate(2.65119 1.72812 1.38316)" fill="#F2F2F2"/>
</svg>
